<?xml version="1.0" encoding="iso-8859-1"?>
<!-- Uploaded to: SVG Repo, www.svgrepo.com, Generator: SVG Repo Mixer Tools -->
<svg height="800px" width="800px" version="1.1" id="Layer_1" xmlns="http://www.w3.org/2000/svg" xmlns:xlink="http://www.w3.org/1999/xlink" 
	 viewBox="0 0 511.98 511.98" xml:space="preserve">
<path style="fill:#CCD1D9;" d="M469.293,234.678H42.654c-5.898,0-10.656,4.75-10.656,10.655v191.993
	c0,5.905,4.757,10.655,10.656,10.655h426.639c5.906,0,10.688-4.75,10.688-10.655V245.334
	C479.98,239.428,475.199,234.678,469.293,234.678z"/>
<path style="fill:#E6E9ED;" d="M469.293,213.335H42.654c-5.898,0-10.656,4.781-10.656,10.656v191.992
	c0,5.906,4.757,10.688,10.656,10.688h426.639c5.906,0,10.688-4.781,10.688-10.688V223.991
	C479.98,218.116,475.199,213.335,469.293,213.335z"/>
<path style="fill:#656D78;" d="M415.983,383.985H95.995c-5.898,0-10.679-4.781-10.679-10.656c0-5.905,4.781-10.655,10.679-10.655
	h319.987c5.875,0,10.655,4.75,10.655,10.655C426.638,379.204,421.858,383.985,415.983,383.985z"/>
<path style="fill:#CCD1D9;" d="M415.983,234.678H95.995c-5.898,0-10.679-4.781-10.679-10.688c0-5.875,4.781-10.656,10.679-10.656
	h319.987c5.875,0,10.655,4.781,10.655,10.656C426.638,229.897,421.858,234.678,415.983,234.678z"/>
<path style="fill:#A0D468;" d="M390.078,266.678c0,5.874,4.781,10.655,10.656,10.655c5.906,0,10.655-4.781,10.655-10.655
	c0-5.906-4.749-10.688-10.655-10.688C394.858,255.99,390.078,260.771,390.078,266.678z"/>
<path style="fill:#ED5564;" d="M347.393,266.678c0,5.874,4.781,10.655,10.687,10.655c5.875,0,10.655-4.781,10.655-10.655
	c0-5.906-4.78-10.688-10.655-10.688C352.174,255.99,347.393,260.771,347.393,266.678z"/>
<g>
	<path style="fill:#FFCE54;" d="M304.737,266.678c0,5.874,4.781,10.655,10.655,10.655c5.906,0,10.688-4.781,10.688-10.655
		c0-5.906-4.781-10.688-10.688-10.688C309.518,255.99,304.737,260.771,304.737,266.678z"/>
	<path style="fill:#FFCE54;" d="M412.858,88.449l-85.324-85.34c-2.016-2-4.719-3.109-7.547-3.109H106.658
		c-5.89,0-10.664,4.766-10.664,10.656V213.32c0,5.89,4.773,10.671,10.664,10.671h298.668c5.874,0,10.655-4.781,10.655-10.671V95.996
		C415.983,93.153,414.858,90.449,412.858,88.449z"/>
</g>
<path style="fill:#F6BB42;" d="M319.987,0v85.325c0,5.891,4.781,10.672,10.656,10.672h85.34l0,0c0-2.125-0.625-4.172-1.781-5.922
	c0,0,0,0-0.016-0.016c-0.172-0.266-0.375-0.531-0.578-0.781c-0.031-0.031-0.047-0.047-0.062-0.078
	c-0.203-0.234-0.406-0.469-0.625-0.688c-0.125-0.125-0.25-0.266-0.375-0.375L327.534,3.109C325.518,1.109,322.815,0,319.987,0
	L319.987,0z"/>
<g>
	<path style="fill:#FFCE54;" d="M127.994,511.98c-5.891,0-10.664-4.781-10.664-10.672V373.313h21.327v127.995
		C138.657,507.199,133.884,511.98,127.994,511.98z"/>
	<path style="fill:#FFCE54;" d="M170.656,511.98c-5.891,0-10.664-4.781-10.664-10.672V373.313h21.335v127.995
		C181.328,507.199,176.547,511.98,170.656,511.98z"/>
	<path style="fill:#FFCE54;" d="M213.326,511.98c-5.891,0-10.672-4.781-10.672-10.672V373.313h21.335v127.995
		C223.99,507.199,219.217,511.98,213.326,511.98z"/>
	<path style="fill:#FFCE54;" d="M255.989,511.98c-5.891,0-10.664-4.781-10.664-10.672V373.313h21.327v127.995
		C266.652,507.199,261.88,511.98,255.989,511.98z"/>
	<path style="fill:#FFCE54;" d="M298.645,511.98c-5.875,0-10.656-4.781-10.656-10.672V373.313h21.343v127.995
		C309.332,507.199,304.551,511.98,298.645,511.98z"/>
	<path style="fill:#FFCE54;" d="M341.331,511.98c-5.906,0-10.688-4.781-10.688-10.672V373.313h21.344v127.995
		C351.987,507.199,347.206,511.98,341.331,511.98z"/>
	<path style="fill:#FFCE54;" d="M383.983,511.98c-5.891,0-10.655-4.781-10.655-10.672V373.313h21.312v127.995
		C394.639,507.199,389.875,511.98,383.983,511.98z"/>
</g>
<g>
	<path style="fill:#ED5564;" d="M213.326,191.992c-41.17,0-74.669-33.499-74.669-74.669s33.499-74.669,74.669-74.669
		s74.662,33.499,74.662,74.669C287.988,158.494,254.497,191.992,213.326,191.992z M213.326,63.998
		c-29.405,0-53.333,23.92-53.333,53.326s23.929,53.326,53.333,53.326c29.405,0,53.326-23.921,53.326-53.326
		S242.732,63.998,213.326,63.998z"/>
	<path style="fill:#ED5564;" d="M213.326,127.995c-5.891,0-10.672-4.781-10.672-10.671v-32c0-5.89,4.781-10.671,10.672-10.671
		c5.89,0,10.664,4.781,10.664,10.671v31.999C223.99,123.214,219.217,127.995,213.326,127.995z"/>
	<path style="fill:#ED5564;" d="M223.99,149.323c0,5.89-4.773,10.671-10.664,10.671s-10.672-4.781-10.672-10.671
		c0-5.891,4.781-10.672,10.672-10.672S223.99,143.432,223.99,149.323z"/>
</g>
</svg>