<!DOCTYPE svg PUBLIC "-//W3C//DTD SVG 1.1//EN" "http://www.w3.org/Graphics/SVG/1.1/DTD/svg11.dtd">
<!-- Uploaded to: SVG Repo, www.svgrepo.com, Transformed by: SVG Repo Mixer Tools -->
<svg height="800px" width="800px" version="1.1" id="Layer_1" xmlns="http://www.w3.org/2000/svg" xmlns:xlink="http://www.w3.org/1999/xlink" viewBox="-39.25 -39.25 471.03 471.03" xml:space="preserve" fill="#000000">
<g id="SVGRepo_bgCarrier" stroke-width="0">
<rect x="-39.25" y="-39.25" width="471.03" height="471.03" rx="235.515" fill="#7ed0ec" strokewidth="0"/>
</g>
<g id="SVGRepo_tracerCarrier" stroke-linecap="round" stroke-linejoin="round"/>
<g id="SVGRepo_iconCarrier"> <circle style="fill:#56ACE0;" cx="196.267" cy="196.267" r="146.618"/> <g> <path style="fill:#194F82;" d="M360.533,341.139l-28.962-2.844c38.917-36.913,60.962-87.725,60.962-142.028 C392.533,87.984,304.549,0,196.267,0S0,87.984,0,196.267s87.984,196.267,196.267,196.267c6.012,0,10.925-4.848,10.925-10.925 c0-6.012-4.848-10.925-10.925-10.925c-96.194,0.065-174.481-78.222-174.481-174.416S100.073,21.786,196.267,21.786 s174.481,78.287,174.481,174.481c0,47.321-18.747,91.41-51.911,123.992l2.651-26.893c0.646-6.012-3.814-11.378-9.826-11.895 c-5.947-0.646-11.378,3.814-11.895,9.826l-5.301,54.238c-0.646,6.012,3.814,11.378,9.826,11.895l54.238,5.301 c0.388,0,0.711,0.065,1.099,0.065c5.56,0,10.279-4.202,10.796-9.826C370.877,347.022,366.546,341.721,360.533,341.139z"/> <path style="fill:#194F82;" d="M196.267,41.18c-6.012,0-10.925,4.848-10.925,10.925v11.572c0,6.012,4.848,10.925,10.925,10.925 c6.077,0,10.925-4.848,10.925-10.925V52.105C207.192,46.028,202.279,41.18,196.267,41.18z"/> <path style="fill:#194F82;" d="M196.267,317.867c-6.012,0-10.925,4.848-10.925,10.925v11.572c0,6.012,4.848,10.925,10.925,10.925 c6.077,0,10.925-4.848,10.925-10.925v-11.572C207.192,322.78,202.279,317.867,196.267,317.867z"/> <path style="fill:#194F82;" d="M328.857,207.192h11.572c6.012,0,10.925-4.848,10.925-10.925c0-6.012-4.848-10.925-10.925-10.925 h-11.572c-6.012,0-10.925,4.848-10.925,10.925S322.844,207.192,328.857,207.192z"/> <path style="fill:#194F82;" d="M63.741,185.341H52.17c-6.012,0-10.925,4.848-10.925,10.925s4.848,10.925,10.925,10.925h11.572 c6.012,0,10.925-4.848,10.925-10.925C74.667,190.255,69.754,185.341,63.741,185.341z"/> <path style="fill:#194F82;" d="M196.267,100.137c-6.012,0-10.925,4.848-10.925,10.925v74.343h-32.97 c-6.012,0-10.925,4.848-10.925,10.925s4.848,10.925,10.925,10.925h43.895c6.012,0,10.925-4.848,10.925-10.925v-85.269 C207.192,104.986,202.279,100.137,196.267,100.137z"/> </g> </g>
</svg>